{"title":"Un.Homme.Ideal.2015.BRRip.XviD.AC3-OzZY1","uid":12721300,"size":1479873264,"categoryP":"video","categoryS":"movies","magnet":"?xt=urn:btih:bb5fc25676b6027d0d201f44138af40dfcd9954e&amp;dn=Un.Homme.Ideal.2015.BRRip.XviD.AC3-OzZY1&amp;tr=udp%3A%2F%2Ftracker.leechers-paradise.org%3A6969&amp;tr=udp%3A%2F%2Fzer0day.ch%3A1337&amp;tr=udp%3A%2F%2Fopen.demonii.com%3A1337&amp;tr=udp%3A%2F%2Ftracker.coppersurfer.tk%3A6969&amp;tr=udp%3A%2F%2Fexodus.desync.com%3A6969","seeders":9,"leechers":2,"uploader":"Slocate","files":2,"time":1446995978,"description":"Un homme ideal (2015)\r\n\r\nCountry: France\r\nYear: 2015\r\nGenre: Thriller\r\nDirector: Yann Gozlan\r\nRuntime: 97 min\r\nIMDB: http://www.imdb.com/title/tt4058500/\r\nCast: Pierre Niney, Ana Girardot, Andre Marcon and others\r\n\r\n.:Plot:.\r\nA struggling writer finds a shortcut to fame, but a blackmailer threatens to ruin his perfect life. \r\n\r\n.:Preview:. \nhttp://postimg.org/image/z277quoev/ \nhttp://postimg.org/image/7p20w3huf/ \nhttp://postimg.org/image/6o1s6z0uv/ \nhttp://postimg.org/image/i32upc2l3/\r\n\r\nGeneral\r\nComplete name                            : Un.Homme.Ideal.2015.BRRip.XviD.AC3-OzZY1.avi\r\nFormat                                   : AVI\r\nFormat/Info                              : Audio Video Interleave\r\nFile size                                : 1.38 GiB\r\nDuration                                 : 1h 43mn\r\nOverall bit rate                         : 1 912 Kbps\r\nWriting application                      : VirtualDubMod 1.5.10.2 (build 2540/release)\r\nWriting library                          : VirtualDubMod build 2540/release\r\n\r\nVideo\r\nID                                       : 0\r\nFormat                                   : MPEG-4 Visual\r\nFormat profile                           : Advanced   \r\nFormat settings, BVOP                    : 2\r\nFormat settings, QPel                    : Yes\r\nFormat settings, GMC                     : No warppoints\r\nFormat settings, Matrix                  : Default (H.263)\r\nCodec ID                                 : XVID\r\nCodec ID/Hint                            : XviD\r\nDuration                                 : 1h 43mn\r\nBit rate                                 : 1 455 Kbps\r\nWidth                                    : 720 pixels\r\nHeight                                   : 304 pixels\r\nDisplay aspect ratio                     : 2.35:1\r\nFrame rate                               : 24.000 fps\r\nColor space                              : YUV\r\nChroma subsampling                       : 4:2:0\r\nBit depth                                : 8 bits\r\nScan type                                : Progressive\r\nCompression mode                         : Lossy\r\nBits/(Pixel*Frame)                       : 0.277\r\nStream size                              : 1.05 GiB (76%)\r\nWriting library                          : XviD 1.2.1 (UTC 2008-12-04)\r\n\r\nAudio\r\nID                                       : 1\r\nFormat                                   : AC-3\r\nFormat/Info                              : Audio Coding 3\r\nMode extension                           : CM (complete main)\r\nFormat settings, Endianness              : Big\r\nCodec ID                                 : 2000\r\nDuration                                 : 1h 43mn\r\nBit rate mode                            : Constant\r\nBit rate                                 : 448 Kbps\r\nChannel(s)                               : 6 channels\r\nChannel positions                        : Front: L C R, Side: L R, LFE\r\nSampling rate                            : 48.0 KHz\r\nBit depth                                : 16 bits\r\nCompression mode                         : Lossy\r\nStream size                              : 331 MiB (23%)\r\nAlignment                                : Split accross interleaves\r\nInterleave, duration                     : 42 ms (1.00 video frame)\r\nInterleave, preload duration             : 500 ms","torrent":{"xt":"urn:btih:bb5fc25676b6027d0d201f44138af40dfcd9954e","amp;dn":"Un.Homme.Ideal.2015.BRRip.XviD.AC3-OzZY1","amp;tr":["udp%3A%2F%2Ftracker.leechers-paradise.org%3A6969","udp%3A%2F%2Fzer0day.ch%3A1337","udp%3A%2F%2Fopen.demonii.com%3A1337","udp%3A%2F%2Ftracker.coppersurfer.tk%3A6969","udp%3A%2F%2Fexodus.desync.com%3A6969"],"infoHash":"bb5fc25676b6027d0d201f44138af40dfcd9954e","infoHashBuffer":{"type":"Buffer","data":[187,95,194,86,118,182,2,125,13,32,31,68,19,138,244,13,252,217,149,78]},"announce":[],"urlList":[]}}